<svg xmlns="http://www.w3.org/2000/svg" viewBox="0 0 24 24" fill="none"><path d="M12 2.5a9.5 9.5 0 0 0-3 18.5c.47.09.64-.2.64-.45 0-.22-.01-.95-.01-1.72-2.62.57-3.17-1.11-3.17-1.11-.43-1.08-1.04-1.37-1.04-1.37-.85-.58.06-.57.06-.57.94.07 1.43.96 1.43.96.84 1.42 2.2 1.01 2.74.77.08-.6.33-1.01.6-1.25-2.09-.23-4.28-1.03-4.28-4.61 0-1.02.37-1.86.98-2.51-.1-.24-.42-1.21.09-2.52 0 0 .8-.25 2.61.96a9.2 9.2 0 0 1 4.76 0c1.8-1.21 2.6-.96 2.6-.96.52 1.31.2 2.28.1 2.52.61.65.98 1.49.98 2.51 0 3.59-2.19 4.37-4.29 4.6.34.29.64.87.64 1.76 0 1.27-.01 2.28-.01 2.59 0 .25.17.55.65.45A9.5 9.5 0 0 0 12 2.5Z" stroke="currentColor" stroke-width="1.6" stroke-linecap="round" stroke-linejoin="round"/></svg>
