<svg xmlns="http://www.w3.org/2000/svg" viewBox="0 0 24 24"><path d="M12.7 3.2c-3.9 0-3.7 1.7-3.7 1.7v1.8h3.8v.6H7.5S3 6.8 3 12.1c0 5.3 4 5.1 4 5.1h2.4v-3.4s-.1-4 4-4h6.7S24 9.6 24 5.4c0-4.2-3.4-2.2-3.4-2.2z" fill="#4AA3FF" transform="scale(.78) translate(3 2.2)"/><circle cx="10.1" cy="6.5" r="1" fill="#0B1020"/><path d="M11.3 20.8c3.9 0 3.7-1.7 3.7-1.7v-1.8h-3.8v-.6h5.3s4.5.5 4.5-4.8c0-5.3-4-5.1-4-5.1h-2.4v3.4s.1 4-4 4H3.9S0 14.4 0 18.6c0 4.2 3.4 2.2 3.4 2.2z" fill="#FFD04F" transform="scale(.78) translate(3 2.2)"/><circle cx="13.9" cy="17.5" r="1" fill="#0B1020"/></svg>
